<?xml version="1.0" standalone="no"?>
<!DOCTYPE svg PUBLIC "-//W3C//DTD SVG 20010904//EN"
 "http://www.w3.org/TR/2001/REC-SVG-20010904/DTD/svg10.dtd">
<svg version="1.0" xmlns="http://www.w3.org/2000/svg"
 width="351.000000pt" height="240.000000pt" viewBox="0 0 351.000000 240.000000"
 preserveAspectRatio="xMidYMid meet">

<g transform="translate(0.000000,240.000000) scale(0.100000,-0.100000)"
fill="#000000" stroke="none">
<path d="M270 1261 l0 -839 82 -76 83 -76 92 0 93 0 0 57 0 57 58 -57 58 -57
96 0 97 0 6 55 c4 30 10 55 14 55 3 0 28 -25 54 -55 l48 -55 90 0 89 0 0 836
0 835 -72 80 -72 79 -162 0 -161 0 -7 -52 c-3 -29 -6 -68 -6 -85 0 -18 -4 -33
-9 -33 -5 0 -44 38 -87 85 l-77 85 -154 0 -153 0 0 -839z m274 787 c3 -13 31
-271 63 -575 32 -303 59 -550 61 -548 4 3 122 1097 122 1128 0 15 13 17 130
17 l130 0 -2 -807 -3 -808 -66 -3 -66 -3 -6 107 c-4 59 -8 351 -8 648 -1 333
-5 526 -10 501 -5 -22 -36 -299 -69 -615 -33 -316 -62 -590 -65 -607 l-6 -33
-79 0 c-43 0 -81 3 -83 8 -3 4 -33 292 -68 641 l-64 634 -6 -324 c-3 -178 -7
-467 -8 -642 l-1 -318 -67 3 -68 3 -3 808 -2 807 120 0 c116 0 120 -1 124 -22z"/>
<path d="M1710 1533 l0 -568 -56 63 -56 62 -109 0 -109 0 0 -197 c0 -233 10
-306 53 -388 38 -73 134 -170 207 -209 71 -39 175 -47 249 -20 70 25 140 81
168 133 l23 44 0 748 0 748 -67 75 -68 74 -117 1 -118 1 0 -567z m190 -193 c0
-699 -1 -732 -19 -768 -73 -142 -284 -177 -394 -64 -63 65 -67 85 -67 332 l0
221 73 -3 72 -3 5 -216 c4 -193 7 -219 24 -237 23 -26 69 -37 95 -22 52 27 51
15 51 780 l0 710 80 0 80 0 0 -730z"/>
<path d="M2310 1258 l0 -843 81 -73 81 -73 91 3 92 3 5 55 5 54 49 -57 49 -58
101 3 101 3 7 48 c4 27 8 51 11 53 2 2 27 -21 56 -51 l53 -55 84 0 84 0 0 839
0 840 -67 75 -68 74 -162 1 -162 1 -6 -47 c-3 -27 -9 -66 -13 -88 l-7 -41 -80
87 -80 87 -152 1 -153 1 0 -842z m270 805 c0 -4 27 -262 60 -573 54 -496 70
-625 70 -554 0 10 27 269 60 574 33 305 60 556 60 558 0 1 56 2 125 2 l125 0
0 -810 0 -810 -70 0 -70 0 -1 433 c-1 237 -5 526 -8 642 l-6 209 -63 -599
c-35 -330 -66 -619 -69 -642 l-6 -43 -82 0 -83 0 -5 43 c-4 23 -31 296 -62
607 -31 311 -59 581 -63 600 -4 19 -9 -253 -12 -605 l-5 -640 -67 -3 -68 -3 0
811 0 810 120 0 c66 0 120 -3 120 -7z"/>
</g>
</svg>
